<?xml version="1.0" encoding="utf-8"?>
<!-- Generator: Adobe Illustrator 16.0.0, SVG Export Plug-In . SVG Version: 6.00 Build 0)  -->
<!DOCTYPE svg PUBLIC "-//W3C//DTD SVG 1.1//EN" "http://www.w3.org/Graphics/SVG/1.1/DTD/svg11.dtd">
<svg version="1.1" id="Livello_1" xmlns="http://www.w3.org/2000/svg" xmlns:xlink="http://www.w3.org/1999/xlink" x="0px" y="0px"
	 width="100px" height="100px" viewBox="0 0 100 100" enable-background="new 0 0 100 100" xml:space="preserve">
<g>
	<defs>
		<rect id="SVGID_1_" width="100" height="100"/>
	</defs>
	<clipPath id="SVGID_2_">
		<use xlink:href="#SVGID_1_"  overflow="visible"/>
	</clipPath>
	<path clip-path="url(#SVGID_2_)" fill="#008ACF" d="M50,0c27.614,0,50,22.386,50,50s-22.386,50-50,50S0,77.614,0,50S22.386,0,50,0"
		/>
	<path clip-path="url(#SVGID_2_)" fill="#005AA7" d="M100,50c0-0.302-0.006-0.603-0.011-0.904L73.911,23.018L11.613,68.132
		l31.376,31.376C45.28,99.83,47.62,100,50,100C77.614,100,100,77.614,100,50"/>
	<path clip-path="url(#SVGID_2_)" fill="#00B6EC" d="M80.391,37.502c-0.51,0-1.012,0.033-1.507,0.09
		c0.049-0.554,0.075-1.114,0.075-1.681c0-10.491-8.506-18.996-18.996-18.996c-8.737,0-16.095,5.899-18.313,13.932
		c-0.703-0.093-1.421-0.141-2.15-0.141c-9.016,0-16.325,7.309-16.325,16.325c0,9.016,7.309,16.325,16.325,16.325h40.89
		c7.14,0,12.927-5.787,12.927-12.927C93.317,43.291,87.529,37.502,80.391,37.502"/>
	<path clip-path="url(#SVGID_2_)" fill="#00AAE0" d="M93.317,50.429c0,7.14-5.788,12.928-12.928,12.928H58.247V16.992
		c0.564-0.052,1.137-0.077,1.717-0.077c10.491,0,18.995,8.504,18.995,18.995c0,0.568-0.027,1.128-0.076,1.682
		c0.496-0.057,0.997-0.091,1.507-0.091C87.529,37.501,93.317,43.29,93.317,50.429"/>
	<path clip-path="url(#SVGID_2_)" fill="#FFFFFF" d="M63.506,46.544c-0.51,0-1.012,0.033-1.507,0.09
		c0.049-0.554,0.075-1.114,0.075-1.681c0-10.491-8.505-18.996-18.995-18.996c-8.738,0-16.096,5.899-18.312,13.932
		c-0.704-0.092-1.422-0.141-2.151-0.141c-9.016,0-16.325,7.309-16.325,16.325c0,9.017,7.309,16.326,16.325,16.326h40.89
		c7.141,0,12.929-5.788,12.929-12.928S70.646,46.544,63.506,46.544"/>
	<path clip-path="url(#SVGID_2_)" fill="#DBE9F0" d="M76.434,59.471c0,7.141-5.788,12.929-12.928,12.929H41.363V26.034
		c0.565-0.051,1.137-0.077,1.717-0.077c10.491,0,18.995,8.505,18.995,18.996c0,0.567-0.027,1.127-0.076,1.681
		c0.496-0.057,0.997-0.09,1.507-0.09C70.646,46.543,76.434,52.333,76.434,59.471"/>
</g>
</svg>
