<?xml version="1.0" encoding="utf-8"?>
<!-- Generator: Adobe Illustrator 16.0.0, SVG Export Plug-In . SVG Version: 6.00 Build 0)  -->
<!DOCTYPE svg PUBLIC "-//W3C//DTD SVG 1.1//EN" "http://www.w3.org/Graphics/SVG/1.1/DTD/svg11.dtd">
<svg version="1.1" id="Livello_1" xmlns="http://www.w3.org/2000/svg" xmlns:xlink="http://www.w3.org/1999/xlink" x="0px" y="0px"
	 width="100px" height="100px" viewBox="0 0 100 100" enable-background="new 0 0 100 100" xml:space="preserve">
<g>
	<defs>
		<rect id="SVGID_1_" width="100" height="100"/>
	</defs>
	<clipPath id="SVGID_2_">
		<use xlink:href="#SVGID_1_"  overflow="visible"/>
	</clipPath>
	<path clip-path="url(#SVGID_2_)" fill="#0B497F" d="M50,0c27.614,0,50,22.386,50,50c0,27.614-22.386,50-50,50
		C22.386,100,0,77.614,0,50C0,22.386,22.386,0,50,0"/>
	<path clip-path="url(#SVGID_2_)" fill="#173D62" d="M100,50c0-1.638-0.081-3.257-0.235-4.854L67.188,12.568
		c0,0-13.162,3.228-14.885,14.021C50.58,37.383,17.581,62.206,17.581,62.206l9.424,12.048l-6.733,7.957l15.916,15.855
		C40.575,99.325,45.209,100,50,100C77.614,100,100,77.614,100,50"/>
	<path clip-path="url(#SVGID_2_)" fill="#FEE49A" d="M66.545,32.349c-5.296-5.296-5.296-13.883,0-19.179
		c0.209-0.209,0.424-0.409,0.644-0.601c-5.278-0.171-10.61,1.757-14.639,5.785c-7.73,7.729-7.73,20.261,0,27.99
		c7.729,7.729,20.261,7.729,27.99,0c4.028-4.028,5.956-9.361,5.785-14.638c-0.192,0.219-0.393,0.434-0.602,0.643
		C80.428,37.645,71.841,37.645,66.545,32.349"/>
	<path clip-path="url(#SVGID_2_)" fill="#FFD44D" d="M80.54,46.344c-3.587,3.587-8.212,5.511-12.908,5.766V33.324
		c5.325,4.298,13.145,3.972,18.091-0.976c0.212-0.209,0.41-0.423,0.604-0.642C86.496,36.983,84.567,42.315,80.54,46.344"/>
	<path clip-path="url(#SVGID_2_)" fill="#FFFFFF" d="M63.064,42.925c-0.45,0-0.893,0.029-1.329,0.08
		c0.043-0.489,0.066-0.983,0.066-1.483c0-9.251-7.5-16.751-16.751-16.751c-7.705,0-14.194,5.202-16.148,12.286
		c-0.621-0.082-1.254-0.125-1.897-0.125c-7.95,0-14.396,6.446-14.396,14.396c0,7.95,6.446,14.396,14.396,14.396h36.059
		c6.296,0,11.4-5.104,11.4-11.4S69.36,42.925,63.064,42.925"/>
	<path clip-path="url(#SVGID_2_)" fill="#DBE9F0" d="M74.465,54.325c0,6.296-5.104,11.4-11.4,11.4H43.537V24.839
		c0.499-0.046,1.003-0.068,1.514-0.068c9.252,0,16.751,7.499,16.751,16.751c0,0.5-0.023,0.994-0.065,1.483
		c0.436-0.051,0.878-0.08,1.328-0.08C69.361,42.925,74.465,48.03,74.465,54.325"/>
	<path clip-path="url(#SVGID_2_)" fill="#00B6EC" d="M27.005,74.254v4.818c0,1.676-1.021,3.182-2.576,3.805
		c-1.763,0.705-3.778,0.107-4.872-1.445c-1.396-1.98-0.45-4.747,1.866-5.46L27.005,74.254z"/>
	<path clip-path="url(#SVGID_2_)" fill="#00B6EC" d="M40.727,74.254v4.818c0,1.676-1.021,3.182-2.576,3.805
		c-1.763,0.705-3.778,0.107-4.872-1.445c-1.396-1.98-0.45-4.747,1.866-5.46L40.727,74.254z"/>
	<path clip-path="url(#SVGID_2_)" fill="#00A9DA" d="M54.448,74.254v4.818c0,1.676-1.021,3.182-2.576,3.805
		c-1.762,0.705-3.778,0.107-4.872-1.445c-1.396-1.98-0.45-4.747,1.866-5.46L54.448,74.254z"/>
	<path clip-path="url(#SVGID_2_)" fill="#00A9DA" d="M68.17,74.254v4.818c0,1.676-1.02,3.182-2.575,3.805
		c-1.763,0.705-3.778,0.107-4.872-1.445c-1.396-1.98-0.45-4.747,1.865-5.46L68.17,74.254z"/>
</g>
</svg>
