<?xml version="1.0" encoding="utf-8"?>
<!-- Generator: Adobe Illustrator 16.0.0, SVG Export Plug-In . SVG Version: 6.00 Build 0)  -->
<!DOCTYPE svg PUBLIC "-//W3C//DTD SVG 1.1//EN" "http://www.w3.org/Graphics/SVG/1.1/DTD/svg11.dtd">
<svg version="1.1" id="Livello_1" xmlns="http://www.w3.org/2000/svg" xmlns:xlink="http://www.w3.org/1999/xlink" x="0px" y="0px"
	 width="100px" height="100px" viewBox="0 0 100 100" enable-background="new 0 0 100 100" xml:space="preserve">
<g>
	<defs>
		<rect id="SVGID_1_" width="100" height="100"/>
	</defs>
	<clipPath id="SVGID_2_">
		<use xlink:href="#SVGID_1_"  overflow="visible"/>
	</clipPath>
	<path clip-path="url(#SVGID_2_)" fill="#008BCA" d="M50,0c27.614,0,50,22.386,50,50c0,27.614-22.386,50-50,50S0,77.614,0,50
		C0,22.386,22.386,0,50,0"/>
	<path clip-path="url(#SVGID_2_)" fill="#135AA3" d="M100,50c0-3.954-0.461-7.8-1.329-11.489l-18.59-18.592l-16.96,8.831L50,7.46
		l-2.539,27.892L7.46,50l25.55,15.295L19.919,80.08l18.592,18.591C42.2,99.539,46.046,100,50,100C77.614,100,100,77.614,100,50"/>
	<path clip-path="url(#SVGID_2_)" fill="#F7B011" d="M92.54,50l-0.26-0.166c-5.419-3.466-6.883-10.737-3.225-16.029l0.175-0.254
		c-6.377-1.107-10.541-7.31-9.15-13.631c-6.447,1.417-12.785-2.797-13.97-9.292C60.818,14.354,53.487,12.913,50,7.459l-0.166,0.26
		c-3.466,5.42-10.737,6.882-16.029,3.224l-0.254-0.175c-1.107,6.377-7.31,10.541-13.631,9.151l0.066,0.301
		c1.382,6.283-2.726,12.459-9.054,13.614l-0.304,0.056C14.354,39.183,12.913,46.513,7.46,50l0.26,0.166
		c5.42,3.466,6.882,10.737,3.224,16.029l-0.175,0.254c6.376,1.108,10.541,7.312,9.151,13.633l0.301-0.066
		c6.283-1.382,12.459,2.725,13.614,9.054l0.056,0.304c5.292-3.727,12.622-2.284,16.109,3.169l0.166-0.261
		c3.466-5.42,10.737-6.883,16.029-3.224l0.254,0.174c1.107-6.376,7.31-10.54,13.632-9.149l-0.067-0.302
		c-1.381-6.282,2.727-12.459,9.056-13.614l0.303-0.056C85.646,60.817,87.088,53.486,92.54,50"/>
	<path clip-path="url(#SVGID_2_)" fill="#F0962C" d="M87.301,59.582c0,2.256,0.67,4.535,2.072,6.527l-0.305,0.055
		c-6.329,1.156-10.436,7.332-9.055,13.615l0.066,0.301c-0.822-0.182-1.643-0.268-2.451-0.268c-5.396,0-10.218,3.874-11.181,9.418
		l-0.253-0.173c-5.291-3.659-12.563-2.196-16.029,3.224L50,92.539V7.461c2.176,3.4,5.846,5.24,9.583,5.24
		c2.256,0,4.534-0.67,6.527-2.072c1.031,5.644,5.951,9.566,11.455,9.566c0.828,0,1.672-0.09,2.516-0.275
		c-0.182,0.822-0.268,1.642-0.268,2.451c0,5.397,3.873,10.217,9.42,11.18l-0.176,0.254c-3.658,5.293-2.195,12.562,3.224,16.029
		L92.541,50C89.141,52.174,87.301,55.844,87.301,59.582"/>
	<path clip-path="url(#SVGID_2_)" fill="#FFD862" d="M50,20.183c16.468,0,29.816,13.35,29.816,29.817
		c0,16.468-13.349,29.817-29.816,29.817c-16.468,0-29.817-13.35-29.817-29.817C20.183,33.533,33.532,20.183,50,20.183"/>
	<path clip-path="url(#SVGID_2_)" fill="#F8C300" d="M79.818,50c0,13.32-8.738,24.604-20.793,28.428
		c-2.849,0.904-5.879,1.391-9.025,1.391V20.182c3.146,0,6.177,0.486,9.025,1.39C71.08,25.396,79.818,36.68,79.818,50"/>
</g>
</svg>
