<?xml version="1.0" encoding="utf-8"?>
<!-- Generator: Adobe Illustrator 16.0.0, SVG Export Plug-In . SVG Version: 6.00 Build 0)  -->
<!DOCTYPE svg PUBLIC "-//W3C//DTD SVG 1.1//EN" "http://www.w3.org/Graphics/SVG/1.1/DTD/svg11.dtd">
<svg version="1.1" id="Livello_1" xmlns="http://www.w3.org/2000/svg" xmlns:xlink="http://www.w3.org/1999/xlink" x="0px" y="0px"
	 width="100px" height="100px" viewBox="0 0 100 100" enable-background="new 0 0 100 100" xml:space="preserve">
<g>
	<defs>
		<rect id="SVGID_1_" width="100" height="100"/>
	</defs>
	<clipPath id="SVGID_2_">
		<use xlink:href="#SVGID_1_"  overflow="visible"/>
	</clipPath>
	<path clip-path="url(#SVGID_2_)" fill="#0B497F" d="M50,0c27.614,0,50,22.386,50,50c0,27.614-22.386,50-50,50
		C22.386,100,0,77.614,0,50C0,22.386,22.386,0,50,0"/>
	<path clip-path="url(#SVGID_2_)" fill="#173D62" d="M100,50c0-0.191-0.005-0.38-0.007-0.57l-24.36-24.36
		c0,0-16.643-6.125-27.586-6.125c-9.563,0-24.868,3.414-24.868,3.414l40.427,40.466c-2.139,13.411-18.624,17.578-33.593,17.578
		c-1.178,0-6.834-2.762-6.834-2.762L45.317,99.78C46.859,99.923,48.421,100,50,100C77.614,100,100,77.614,100,50"/>
	<path clip-path="url(#SVGID_2_)" fill="#FDF0CB" d="M56.491,50c0-15.371-13.355-27.831-29.831-27.831
		c-1.178,0-2.339,0.066-3.482,0.19c6.588-5.931,15.306-9.542,24.869-9.542c20.535,0,37.182,16.647,37.182,37.183
		c0,20.535-16.647,37.184-37.182,37.184c-9.563,0-18.281-3.612-24.869-9.542c1.143,0.124,2.304,0.188,3.482,0.188
		C43.136,77.83,56.491,65.37,56.491,50"/>
	<path clip-path="url(#SVGID_2_)" fill="#FEE49A" d="M85.23,50c0,19.881-15.604,36.117-35.229,37.133V67.334
		c4.062-4.756,6.491-10.778,6.491-17.334c0-6.555-2.43-12.578-6.491-17.334V12.867C69.627,13.883,85.23,30.119,85.23,50"/>
</g>
</svg>
