<?xml version="1.0" encoding="utf-8"?>
<!-- Generator: Adobe Illustrator 16.0.0, SVG Export Plug-In . SVG Version: 6.00 Build 0)  -->
<!DOCTYPE svg PUBLIC "-//W3C//DTD SVG 1.1//EN" "http://www.w3.org/Graphics/SVG/1.1/DTD/svg11.dtd">
<svg version="1.1" id="Livello_1" xmlns="http://www.w3.org/2000/svg" xmlns:xlink="http://www.w3.org/1999/xlink" x="0px" y="0px"
	 width="100px" height="100px" viewBox="0 0 100 100" enable-background="new 0 0 100 100" xml:space="preserve">
<g>
	<defs>
		<rect id="SVGID_1_" width="100" height="100"/>
	</defs>
	<clipPath id="SVGID_2_">
		<use xlink:href="#SVGID_1_"  overflow="visible"/>
	</clipPath>
	<path clip-path="url(#SVGID_2_)" fill="#1F4A7F" d="M49.86,0c27.614,0,50,22.386,50,50s-22.386,50-50,50c-27.614,0-50-22.386-50-50
		S22.247,0,49.86,0"/>
	<path clip-path="url(#SVGID_2_)" fill="#233E62" d="M100.14,50c0-1.901-0.11-3.775-0.316-5.621L69.948,14.504
		c0,0-14.926,3.66-16.879,15.9c-1.952,12.239-39.374,40.388-39.374,40.388l28.591,28.593C44.846,99.788,47.468,100,50.14,100
		C77.754,100,100.14,77.614,100.14,50"/>
	<path clip-path="url(#SVGID_2_)" fill="#FEE49A" d="M69.22,36.935c-6.006-6.005-6.006-15.743,0-21.749
		c0.237-0.236,0.48-0.463,0.729-0.681c-5.985-0.194-12.032,1.992-16.6,6.56c-8.765,8.765-8.765,22.975,0,31.74
		c8.766,8.765,22.976,8.765,31.74,0c4.567-4.568,6.753-10.615,6.561-16.599c-0.219,0.249-0.445,0.492-0.683,0.729
		C84.962,42.94,75.226,42.94,69.22,36.935"/>
	<path clip-path="url(#SVGID_2_)" fill="#FFD44D" d="M85.09,52.805c-4.068,4.068-9.313,6.25-14.639,6.539V38.041
		c6.039,4.873,14.906,4.504,20.516-1.107c0.238-0.236,0.465-0.481,0.685-0.729C91.844,42.189,89.656,48.237,85.09,52.805"/>
	<path clip-path="url(#SVGID_2_)" fill="#FFFFFF" d="M65.272,48.929c-0.51,0-1.012,0.033-1.507,0.09
		c0.049-0.554,0.075-1.114,0.075-1.681c0-10.491-8.505-18.995-18.995-18.995c-8.737,0-16.095,5.899-18.312,13.931
		c-0.703-0.092-1.421-0.14-2.151-0.14c-9.015,0-16.325,7.308-16.325,16.325c0,9.016,7.31,16.324,16.325,16.324h40.89
		c7.14,0,12.928-5.788,12.928-12.928C78.2,54.717,72.412,48.929,65.272,48.929"/>
	<path clip-path="url(#SVGID_2_)" fill="#DBE9F0" d="M78.2,61.855c0,7.14-5.787,12.928-12.928,12.928H43.129V28.418
		c0.565-0.052,1.137-0.077,1.717-0.077c10.491,0,18.995,8.505,18.995,18.996c0,0.567-0.026,1.127-0.075,1.681
		c0.496-0.057,0.997-0.09,1.507-0.09C72.413,48.927,78.2,54.718,78.2,61.855"/>
</g>
</svg>
