<?xml version="1.0" encoding="utf-8"?>
<!-- Generator: Adobe Illustrator 16.0.0, SVG Export Plug-In . SVG Version: 6.00 Build 0)  -->
<!DOCTYPE svg PUBLIC "-//W3C//DTD SVG 1.1//EN" "http://www.w3.org/Graphics/SVG/1.1/DTD/svg11.dtd">
<svg version="1.1" id="Livello_1" xmlns="http://www.w3.org/2000/svg" xmlns:xlink="http://www.w3.org/1999/xlink" x="0px" y="0px"
	 width="100px" height="100px" viewBox="0 0 100 100" enable-background="new 0 0 100 100" xml:space="preserve">
<g>
	<defs>
		<rect id="SVGID_1_" width="100" height="100"/>
	</defs>
	<clipPath id="SVGID_2_">
		<use xlink:href="#SVGID_1_"  overflow="visible"/>
	</clipPath>
	<path clip-path="url(#SVGID_2_)" fill="#008AC8" d="M50,0c27.614,0,50,22.386,50,50c0,27.614-22.386,50-50,50S0,77.614,0,50
		C0,22.386,22.386,0,50,0"/>
	<path clip-path="url(#SVGID_2_)" fill="#135AA3" d="M100,50c0-1.525-0.072-3.034-0.206-4.524l-31.85-31.851l-50.84,40.382
		l9.725,9.727c0.038,0.041-6.422,8.217-6.422,8.217l9.641,9.624l-4.702,4.518l12.392,12.392C41.662,99.472,45.769,100,50,100
		C77.614,100,100,77.614,100,50"/>
	<path clip-path="url(#SVGID_2_)" fill="#FFFFFF" d="M75.181,29.822c-0.571,0-1.133,0.037-1.688,0.101
		c0.055-0.62,0.083-1.248,0.083-1.882c0-11.745-9.521-21.266-21.265-21.266c-9.781,0-18.019,6.605-20.5,15.597
		c-0.788-0.104-1.591-0.158-2.407-0.158c-10.094,0-18.276,8.183-18.276,18.276c0,10.094,8.182,18.276,18.276,18.276h45.776
		c7.993,0,14.472-6.48,14.472-14.472C89.652,36.301,83.174,29.822,75.181,29.822"/>
	<path clip-path="url(#SVGID_2_)" fill="#DBE9F0" d="M89.652,44.294c0,7.993-6.479,14.472-14.473,14.472H50.391V6.862
		c0.633-0.059,1.274-0.087,1.922-0.087c11.744,0,21.266,9.521,21.266,21.266c0,0.635-0.03,1.262-0.084,1.882
		c0.554-0.064,1.115-0.101,1.686-0.101C83.174,29.821,89.652,36.302,89.652,44.294"/>
	<path clip-path="url(#SVGID_2_)" fill="#00B6EC" d="M27.664,63.633v5.104c0,1.773-1.081,3.369-2.728,4.028
		c-1.867,0.747-4.002,0.114-5.16-1.528c-1.478-2.1-0.477-5.028,1.976-5.783L27.664,63.633z"/>
	<path clip-path="url(#SVGID_2_)" fill="#00B6EC" d="M44.526,63.633v5.104c0,1.773-1.081,3.369-2.728,4.028
		c-1.867,0.747-4.002,0.114-5.16-1.528c-1.478-2.1-0.477-5.028,1.976-5.783L44.526,63.633z"/>
	<path clip-path="url(#SVGID_2_)" fill="#00A9DA" d="M61.39,63.633v5.104c0,1.773-1.081,3.369-2.729,4.028
		c-1.866,0.747-4.002,0.114-5.159-1.528c-1.479-2.1-0.478-5.028,1.976-5.783L61.39,63.633z"/>
	<path clip-path="url(#SVGID_2_)" fill="#00A9DA" d="M78.252,63.633v5.104c0,1.773-1.081,3.369-2.728,4.028
		c-1.867,0.747-4.002,0.114-5.16-1.528c-1.478-2.1-0.477-5.028,1.976-5.783L78.252,63.633z"/>
	<path clip-path="url(#SVGID_2_)" fill="#00B6EC" d="M32.693,77.859v5.104c0,1.773-1.081,3.369-2.729,4.028
		c-1.866,0.747-4.001,0.114-5.159-1.528c-1.478-2.1-0.477-5.028,1.976-5.783L32.693,77.859z"/>
	<path clip-path="url(#SVGID_2_)" fill="#00B6EC" d="M49.556,77.859v5.104c0,1.773-1.081,3.369-2.728,4.028
		c-1.867,0.747-4.002,0.114-5.16-1.528c-1.478-2.1-0.477-5.028,1.976-5.783L49.556,77.859z"/>
	<path clip-path="url(#SVGID_2_)" fill="#00A9DA" d="M66.418,77.859v5.104c0,1.773-1.081,3.369-2.728,4.028
		c-1.867,0.747-4.002,0.114-5.16-1.528c-1.478-2.1-0.477-5.028,1.976-5.783L66.418,77.859z"/>
</g>
</svg>
