<?xml version="1.0" encoding="utf-8"?>
<!-- Generator: Adobe Illustrator 16.0.0, SVG Export Plug-In . SVG Version: 6.00 Build 0)  -->
<!DOCTYPE svg PUBLIC "-//W3C//DTD SVG 1.1//EN" "http://www.w3.org/Graphics/SVG/1.1/DTD/svg11.dtd">
<svg version="1.1" id="Livello_1" xmlns="http://www.w3.org/2000/svg" xmlns:xlink="http://www.w3.org/1999/xlink" x="0px" y="0px"
	 width="100px" height="100px" viewBox="0 0 100 100" enable-background="new 0 0 100 100" xml:space="preserve">
<g>
	<defs>
		<rect id="SVGID_1_" width="100" height="100"/>
	</defs>
	<clipPath id="SVGID_2_">
		<use xlink:href="#SVGID_1_"  overflow="visible"/>
	</clipPath>
	<path clip-path="url(#SVGID_2_)" fill="#008AC8" d="M50,0c27.614,0,50,22.386,50,50c0,27.615-22.386,50-50,50S0,77.615,0,50
		C0,22.386,22.386,0,50,0"/>
	<path clip-path="url(#SVGID_2_)" fill="#FFFFFF" d="M77.614,35.622c-0.622,0-1.234,0.039-1.837,0.107
		c0.059-0.656,0.091-1.32,0.091-1.991c0-12.425-10.366-22.496-23.154-22.496c-10.651,0-19.62,6.986-22.322,16.499
		c-0.857-0.109-1.732-0.167-2.621-0.167c-10.99,0-19.899,8.656-19.899,19.334s8.909,19.333,19.899,19.333h49.843
		c8.703,0,15.758-6.854,15.758-15.31S86.317,35.622,77.614,35.622"/>
	<path clip-path="url(#SVGID_2_)" fill="#DBE7ED" d="M93.372,50.931c0,8.456-7.055,15.311-15.758,15.311H50.622v-54.91
		c0.688-0.061,1.387-0.091,2.093-0.091c12.788,0,23.154,10.072,23.154,22.496c0,0.672-0.033,1.336-0.092,1.991
		c0.603-0.067,1.215-0.107,1.837-0.107C86.317,35.621,93.372,42.477,93.372,50.931"/>
	<polygon clip-path="url(#SVGID_2_)" fill="#FFD862" points="63.393,59.284 44.911,59.284 34.14,78.067 47.586,78.067 
		43.741,94.147 63.393,72.708 55.759,72.708 	"/>
	<polygon clip-path="url(#SVGID_2_)" fill="#F8C300" points="55.758,72.707 63.394,72.707 50.622,86.642 50.622,59.283 
		63.394,59.283 	"/>
</g>
</svg>
