<?xml version="1.0" encoding="utf-8"?>
<!-- Generator: Adobe Illustrator 16.0.0, SVG Export Plug-In . SVG Version: 6.00 Build 0)  -->
<!DOCTYPE svg PUBLIC "-//W3C//DTD SVG 1.1//EN" "http://www.w3.org/Graphics/SVG/1.1/DTD/svg11.dtd">
<svg version="1.1" id="Livello_1" xmlns="http://www.w3.org/2000/svg" xmlns:xlink="http://www.w3.org/1999/xlink" x="0px" y="0px"
	 width="100px" height="100px" viewBox="0 0 100 100" enable-background="new 0 0 100 100" xml:space="preserve">
<g>
	<defs>
		<rect id="SVGID_1_" width="100" height="100"/>
	</defs>
	<clipPath id="SVGID_2_">
		<use xlink:href="#SVGID_1_"  overflow="visible"/>
	</clipPath>
	<path clip-path="url(#SVGID_2_)" fill="#1F4A7F" d="M50,0c27.614,0,50,22.386,50,50.001c0,27.613-22.386,50-50,50
		c-27.614,0-50-22.387-50-50C0,22.386,22.386,0,50,0"/>
	<path clip-path="url(#SVGID_2_)" fill="#233E62" d="M100,50c0-4.078-0.492-8.041-1.413-11.835L68.051,7.628
		c0,0-14.514,3.559-16.412,15.46C49.739,34.989,13.354,62.36,13.354,62.36l13.165,13.165l-1.027,1.791l11.937,11.721l-2.336,4.36
		l5.765,5.766c2.965,0.549,6.02,0.838,9.142,0.838C77.614,100.001,100,77.614,100,50"/>
	<path clip-path="url(#SVGID_2_)" fill="#233E62" d="M100,50c0-4.078-0.492-8.041-1.413-11.835L68.051,7.628
		c0,0-14.514,3.559-16.412,15.46C49.739,34.989,13.354,62.36,13.354,62.36l13.165,13.165l-1.027,1.791l11.937,11.721l-2.336,4.36
		l5.765,5.766c2.965,0.549,6.02,0.838,9.142,0.838C77.614,100.001,100,77.614,100,50"/>
	<path clip-path="url(#SVGID_2_)" fill="#FEE49A" d="M67.342,29.439c-5.839-5.84-5.839-15.308,0-21.147
		c0.23-0.23,0.468-0.451,0.709-0.663c-5.818-0.188-11.698,1.937-16.14,6.379c-8.522,8.522-8.522,22.34,0,30.863
		c8.522,8.521,22.34,8.521,30.862,0c4.441-4.442,6.566-10.322,6.38-16.14c-0.213,0.241-0.434,0.478-0.664,0.708
		C82.65,35.278,73.182,35.278,67.342,29.439"/>
	<path clip-path="url(#SVGID_2_)" fill="#FFD44D" d="M82.774,44.871c-3.956,3.955-9.056,6.077-14.234,6.357V30.515
		c5.872,4.738,14.494,4.379,19.948-1.077c0.231-0.229,0.452-0.467,0.665-0.708C89.341,34.549,87.214,40.429,82.774,44.871"/>
	<path clip-path="url(#SVGID_2_)" fill="#FFFFFF" d="M63.505,41.102c-0.496,0-0.983,0.032-1.466,0.087
		c0.048-0.538,0.073-1.083,0.073-1.634c0-10.201-8.27-18.471-18.47-18.471c-8.495,0-15.651,5.737-17.805,13.547
		c-0.685-0.09-1.383-0.137-2.091-0.137c-8.767,0-15.874,7.107-15.874,15.874s7.107,15.874,15.874,15.874h39.759
		c6.942,0,12.569-5.628,12.569-12.569C76.074,46.729,70.446,41.102,63.505,41.102"/>
	<path clip-path="url(#SVGID_2_)" fill="#DBE7ED" d="M76.074,53.67c0,6.943-5.627,12.57-12.57,12.57H41.973V21.158
		c0.55-0.051,1.106-0.075,1.669-0.075c10.203,0,18.47,8.269,18.47,18.47c0,0.552-0.026,1.097-0.073,1.635
		c0.481-0.055,0.969-0.088,1.465-0.088C70.447,41.101,76.074,46.73,76.074,53.67"/>
	<polygon clip-path="url(#SVGID_2_)" fill="#FFD862" points="54.744,58.534 36.262,58.534 25.492,77.316 38.938,77.316 
		35.093,93.397 54.744,71.957 47.11,71.957 	"/>
	<polygon clip-path="url(#SVGID_2_)" fill="#F8C300" points="47.11,71.957 54.744,71.957 41.974,85.892 41.974,58.533 
		54.744,58.533 	"/>
</g>
</svg>
