<?xml version="1.0" encoding="utf-8"?>
<!-- Generator: Adobe Illustrator 16.0.0, SVG Export Plug-In . SVG Version: 6.00 Build 0)  -->
<!DOCTYPE svg PUBLIC "-//W3C//DTD SVG 1.1//EN" "http://www.w3.org/Graphics/SVG/1.1/DTD/svg11.dtd">
<svg version="1.1" id="Livello_1" xmlns="http://www.w3.org/2000/svg" xmlns:xlink="http://www.w3.org/1999/xlink" x="0px" y="0px"
	 width="100px" height="100px" viewBox="0 0 100 100" enable-background="new 0 0 100 100" xml:space="preserve">
<g>
	<defs>
		<rect id="SVGID_1_" width="100" height="100"/>
	</defs>
	<clipPath id="SVGID_2_">
		<use xlink:href="#SVGID_1_"  overflow="visible"/>
	</clipPath>
	<path clip-path="url(#SVGID_2_)" fill="#1F4A7F" d="M50,0c27.614,0,50,22.386,50,50s-22.386,50-50,50C22.386,100,0,77.614,0,50
		S22.386,0,50,0"/>
	<path clip-path="url(#SVGID_2_)" fill="#233E62" d="M100,50c0-1.825-0.101-3.626-0.291-5.401L67.803,12.692L16.952,53.085
		l12.22,12.519l-5.713,7.053l9.624,9.626c-1.628,0.69-3.196,5.569-3.196,5.569L41.275,99.24C44.108,99.739,47.023,100,50,100
		C77.614,100,100,77.614,100,50"/>
	<path clip-path="url(#SVGID_2_)" fill="#FFFFFF" d="M75.181,29.042c-0.571,0-1.134,0.037-1.687,0.101
		c0.054-0.621,0.083-1.248,0.083-1.883c0-11.744-9.521-21.265-21.266-21.265c-9.781,0-18.019,6.605-20.5,15.597
		c-0.788-0.104-1.591-0.158-2.407-0.158c-10.094,0-18.277,8.183-18.277,18.276c0,10.094,8.183,18.276,18.277,18.276h45.776
		c7.992,0,14.472-6.48,14.472-14.472C89.652,35.521,83.173,29.042,75.181,29.042"/>
	<path clip-path="url(#SVGID_2_)" fill="#DBE9F0" d="M89.652,43.513c0,7.994-6.479,14.473-14.472,14.473h-24.79V6.081
		c0.633-0.058,1.273-0.087,1.922-0.087c11.744,0,21.266,9.521,21.266,21.266c0,0.635-0.029,1.262-0.085,1.882
		c0.555-0.064,1.116-0.101,1.687-0.101C83.174,29.041,89.652,35.521,89.652,43.513"/>
	<path clip-path="url(#SVGID_2_)" fill="#FFFFFF" d="M21.674,68.3c0.398-2.477,2.729-4.159,5.204-3.76
		c2.475,0.398,4.158,2.729,3.76,5.203c-0.399,2.476-2.729,4.159-5.204,3.761C22.958,73.104,21.275,70.774,21.674,68.3"/>
	<path clip-path="url(#SVGID_2_)" fill="#FFFFFF" d="M39.069,68.305c0.399-2.477,2.729-4.159,5.204-3.76
		c2.476,0.398,4.159,2.729,3.761,5.203c-0.4,2.476-2.73,4.159-5.204,3.761C40.354,73.109,38.671,70.779,39.069,68.305"/>
	<path clip-path="url(#SVGID_2_)" fill="#DBE9F0" d="M56.535,68.246c0.438-2.47,2.793-4.119,5.264-3.683
		c2.47,0.437,4.119,2.793,3.683,5.264s-2.793,4.119-5.264,3.683C57.748,73.073,56.099,70.718,56.535,68.246"/>
	<path clip-path="url(#SVGID_2_)" fill="#DBE9F0" d="M73.863,68.284c0.401-2.476,2.733-4.157,5.208-3.755
		c2.477,0.4,4.157,2.732,3.756,5.208c-0.4,2.476-2.733,4.156-5.209,3.755C75.144,73.091,73.463,70.76,73.863,68.284"/>
	<path clip-path="url(#SVGID_2_)" fill="#FFFFFF" d="M28.097,83.496c0.399-2.475,2.729-4.158,5.204-3.76
		c2.476,0.399,4.159,2.729,3.761,5.204c-0.4,2.475-2.73,4.159-5.204,3.76C29.382,88.302,27.699,85.973,28.097,83.496"/>
	<path clip-path="url(#SVGID_2_)" fill="#FFFFFF" d="M45.502,83.475c0.4-2.476,2.732-4.156,5.208-3.755
		c2.476,0.401,4.157,2.733,3.756,5.208c-0.4,2.476-2.733,4.157-5.209,3.755C46.781,88.282,45.101,85.95,45.502,83.475"/>
	<path clip-path="url(#SVGID_2_)" fill="#DBE9F0" d="M62.896,83.477c0.401-2.477,2.732-4.157,5.208-3.755
		c2.477,0.4,4.157,2.732,3.756,5.208c-0.4,2.475-2.733,4.156-5.209,3.755S62.494,85.951,62.896,83.477"/>
	<path clip-path="url(#SVGID_2_)" fill="#DBE9F0" d="M54.541,84.213c0,2.508-2.033,4.541-4.541,4.541v-9.082
		C52.508,79.672,54.541,81.705,54.541,84.213"/>
</g>
</svg>
